HIERARCHY
ROOT Hips
{
	OFFSET 0.00000 0.00000 0.00000
	CHANNELS 6 Xposition Yposition Zposition Zrotation Yrotation Xrotation 
	JOINT LHipJoint
	{
		OFFSET 0 0 0
		CHANNELS 3 Zrotation Yrotation Xrotation
		JOINT LeftUpLeg
		{
			OFFSET 1.57338 -1.94743 0.52196
			CHANNELS 3 Zrotation Yrotation Xrotation
			JOINT LeftLeg
			{
				OFFSET 2.60333 -7.15259 0.00000
				CHANNELS 3 Zrotation Yrotation Xrotation
				JOINT LeftFoot
				{
					OFFSET 2.77855 -7.63400 0.00000
					CHANNELS 3 Zrotation Yrotation Xrotation
					JOINT LeftToeBase
					{
						OFFSET 0.19847 -0.54529 2.28466
						CHANNELS 3 Zrotation Yrotation Xrotation
						End Site
						{
							OFFSET 0.00000 -0.00000 1.17993
						}
					}
				}
			}
		}
	}
	JOINT RHipJoint
	{
		OFFSET 0 0 0
		CHANNELS 3 Zrotation Yrotation Xrotation
		JOINT RightUpLeg
		{
			OFFSET -1.61527 -1.94743 0.52196
			CHANNELS 3 Zrotation Yrotation Xrotation
			JOINT RightLeg
			{
				OFFSET -2.53829 -6.97390 0.00000
				CHANNELS 3 Zrotation Yrotation Xrotation
				JOINT RightFoot
				{
					OFFSET -2.80762 -7.71387 0.00000
					CHANNELS 3 Zrotation Yrotation Xrotation
					JOINT RightToeBase
					{
						OFFSET -0.30536 -0.83898 2.28801
						CHANNELS 3 Zrotation Yrotation Xrotation
						End Site
						{
							OFFSET -0.00000 -0.00000 1.21323
						}
					}
				}
			}
		}
	}
	JOINT LowerBack
	{
		OFFSET 0 0 0
		CHANNELS 3 Zrotation Yrotation Xrotation
		JOINT Spine
		{
			OFFSET -0.04381 1.99497 -0.19778
			CHANNELS 3 Zrotation Yrotation Xrotation
			JOINT Spine1
			{
				OFFSET -0.01959 2.01295 -0.04372
				CHANNELS 3 Zrotation Yrotation Xrotation
				JOINT Neck
				{
					OFFSET 0 0 0
					CHANNELS 3 Zrotation Yrotation Xrotation
					JOINT Neck1
					{
						OFFSET -0.05459 1.76913 0.09708
						CHANNELS 3 Zrotation Yrotation Xrotation
						JOINT Head
						{
							OFFSET 0.09461 1.77368 -0.11172
							CHANNELS 3 Zrotation Yrotation Xrotation
							End Site
							{
								OFFSET 0.03812 1.78157 -0.04834
							}
						}
					}
				}
				JOINT LeftShoulder
				{
					OFFSET 0 0 0
					CHANNELS 3 Zrotation Yrotation Xrotation
					JOINT LeftArm
					{
						OFFSET 3.50922 1.24034 -0.28866
						CHANNELS 3 Zrotation Yrotation Xrotation
						JOINT LeftForeArm
						{
							OFFSET 5.40188 -0.00000 0.00000
							CHANNELS 3 Zrotation Yrotation Xrotation
							JOINT LeftHand
							{
								OFFSET 3.68559 -0.00000 0.00000
								CHANNELS 3 Zrotation Yrotation Xrotation
								JOINT LeftFingerBase
								{
									OFFSET 0 0 0
									CHANNELS 3 Zrotation Yrotation Xrotation
									JOINT LeftHandIndex1
									{
										OFFSET 0.61753 -0.00000 0.00000
										CHANNELS 3 Zrotation Yrotation Xrotation
										End Site
										{
											OFFSET 0.49787 -0.00000 0.00000
										}
									}
								}
								JOINT LThumb
								{
									OFFSET 0 0 0
									CHANNELS 3 Zrotation Yrotation Xrotation
									End Site
									{
										OFFSET 0.50547 -0.00000 0.50547
									}
								}
							}
						}
					}
				}
				JOINT RightShoulder
				{
					OFFSET 0 0 0
					CHANNELS 3 Zrotation Yrotation Xrotation
					JOINT RightArm
					{
						OFFSET -2.95373 1.39649 -0.27346
						CHANNELS 3 Zrotation Yrotation Xrotation
						JOINT RightForeArm
						{
							OFFSET -6.10670 -0.00000 -0.00000
							CHANNELS 3 Zrotation Yrotation Xrotation
							JOINT RightHand
							{
								OFFSET -3.63052 -0.00000 0.00000
								CHANNELS 3 Zrotation Yrotation Xrotation
								JOINT RightFingerBase
								{
									OFFSET 0 0 0
									CHANNELS 3 Zrotation Yrotation Xrotation
									JOINT RightHandIndex1
									{
										OFFSET -0.58385 -0.00000 0.00000
										CHANNELS 3 Zrotation Yrotation Xrotation
										End Site
										{
											OFFSET -0.47071 -0.00000 0.00000
										}
									}
								}
								JOINT RThumb
								{
									OFFSET 0 0 0
									CHANNELS 3 Zrotation Yrotation Xrotation
									End Site
									{
										OFFSET -0.47790 -0.00000 0.47790
									}
								}
							}
						}
					}
				}
			}
		}
	}
}
MOTION
Frames: 6
Frame Time: .0083333
0.0482 25.7061 -1.9191 2.8668 -3.8476 0.9678 0.0000 0.0000 0.0000 -25.2003 4.1421 9.8551 1.9226 8.7030 24.8705 2.7470 13.3569 29.9959 0.0421 -1.3235 -3.6395 0.0000 0.0000 0.0000 22.4801 6.2165 5.9380 -5.5557 -13.9835 43.1713 -0.9492 -25.2883 23.5429 -0.2218 -3.0317 8.3669 0.2005 1.7790 -3.8242 -0.3600 2.3580 -4.6786 -0.4476 1.1657 -2.6435 -5.7544 -1.5196 -11.6504 5.7608 -1.7465 8.7019 2.5944 -0.6956 4.6110 0.0000 0.0000 0.0000 -66.5426 -16.7213 8.0472 37.5323 -46.5380 -16.6253 -0.0000 -0.0000 6.2317 26.8275 17.7710 8.7748 -7.1250 0.0000 -0.0000 -1.1749 49.7326 -0.1371 0.0000 0.0000 0.0000 64.4861 35.9939 31.3765 -24.3607 35.5434 -7.9153 0.0000 0.0000 17.5777 -19.4883 -0.2549 0.0902 7.1250 -0.0000 -0.0000 5.5883 -30.2255 2.0240
0.0465 25.8647 -1.7148 2.1644 -3.8441 1.4779 0.0000 0.0000 0.0000 -24.5066 3.5684 9.0351 1.8256 8.4930 24.2220 2.2857 13.6650 27.4371 0.1649 -2.6161 -7.2117 0.0000 0.0000 0.0000 23.3205 6.6502 5.5216 -5.2265 -13.6345 41.7925 -0.7774 -25.6282 22.7651 -0.1983 -2.8679 7.9111 0.8749 1.7305 -4.4743 -0.1805 2.2777 -4.8219 -0.6224 1.1091 -2.4111 -5.4918 -1.4306 -11.4000 5.6652 -1.6722 8.7316 2.5276 -0.6598 4.5713 0.0000 -0.0000 0.0000 -67.3158 -14.7111 6.1238 35.3807 -45.0821 -15.0823 -0.0000 -0.0000 7.1601 25.9603 18.3212 8.7014 -7.1250 0.0000 -0.0000 -2.1445 50.1859 -0.2742 0.0000 -0.0000 0.0000 65.1675 34.5591 30.7718 -24.0833 35.2522 -7.7546 0.0000 0.0000 18.4572 -19.4234 0.9487 -0.3345 7.1250 -0.0000 -0.0000 5.5706 -28.9548 2.1868
0.0443 26.0048 -1.5214 1.7934 -3.6834 1.7397 0.0000 0.0000 0.0000 -24.0682 3.0589 8.2129 1.7712 8.3724 23.8510 1.8009 13.8374 24.5346 0.4127 -4.1236 -11.4246 0.0000 0.0000 0.0000 23.7951 6.8781 5.3408 -4.8734 -13.2398 40.2727 -0.5379 -26.0064 21.6173 -0.1810 -2.7404 7.5569 1.2267 1.6643 -4.6943 -0.1326 2.1788 -4.8879 -0.7664 1.0501 -2.3478 -5.2314 -1.3974 -11.2183 5.6343 -1.6724 8.6762 2.4754 -0.6557 4.5219 -0.0000 0.0000 0.0000 -67.9800 -12.8748 4.3562 33.1947 -43.4792 -13.5559 -0.0000 -0.0000 7.7328 25.7575 18.7118 8.7990 -7.1250 0.0000 -0.0000 -2.4305 50.5742 -0.3340 -0.0000 0.0000 0.0000 65.7722 33.0705 29.9843 -23.8504 35.0056 -7.6205 0.0000 0.0000 19.1655 -19.1853 1.0915 -0.3798 7.1250 -0.0000 -0.0000 5.7482 -28.8045 2.2778
0.0485 26.1315 -1.3315 1.7290 -3.5471 1.8794 0.0000 0.0000 0.0000 -23.9736 2.5379 7.4171 1.7388 8.2995 23.6274 1.5187 14.3530 22.8150 0.5238 -4.6381 -12.8791 0.0000 0.0000 0.0000 23.8173 6.9533 5.1991 -4.5186 -12.8202 38.6992 -0.3811 -26.0020 20.6981 -0.1655 -2.6208 7.2248 1.2709 1.6334 -4.8474 -0.1192 2.1337 -4.7784 -0.7717 1.0285 -2.1490 -5.0931 -1.4205 -11.3344 5.5904 -1.7139 8.6289 2.4357 -0.6725 4.5274 -0.0000 -0.0000 0.0000 -68.7685 -11.3308 2.7253 31.0251 -41.7560 -12.0866 -0.0000 -0.0000 7.9183 26.0407 19.0652 9.0680 -7.1250 0.0000 -0.0000 -2.2253 51.0057 -0.3294 -0.0000 -0.0000 0.0000 66.0415 31.7090 29.0595 -23.6765 34.8203 -7.5210 0.0000 0.0000 19.4167 -18.5234 0.0226 -0.0076 7.1250 -0.0000 -0.0000 6.3290 -29.9257 2.3406
0.0589 26.2497 -1.1498 1.4472 -3.4565 1.9562 0.0000 0.0000 0.0000 -23.6314 2.0175 6.6549 1.7086 8.2307 23.4169 1.3666 14.8133 21.9074 0.5128 -4.5900 -12.7428 0.0000 0.0000 0.0000 24.0677 7.0553 5.0841 -4.1826 -12.3995 37.1602 -0.2519 -26.0834 19.9791 -0.1957 -2.8490 7.8587 1.6135 1.5720 -4.7344 -0.0561 2.0440 -4.6441 -0.9020 0.9765 -2.0659 -5.0153 -1.4382 -11.4630 5.6342 -1.7421 8.4303 2.4335 -0.6797 4.4890 -0.0000 -0.0000 0.0000 -69.4362 -9.8247 0.9870 28.8763 -39.9106 -10.6813 -0.0000 -0.0000 7.8706 26.1462 19.5478 9.3276 -7.1250 0.0000 -0.0000 -2.2284 51.5468 -0.3595 -0.0000 -0.0000 0.0000 66.3592 30.5021 28.4408 -23.4216 34.5466 -7.3760 0.0000 0.0000 19.3375 -18.6687 -0.5898 0.1993 7.1250 -0.0000 -0.0000 6.2567 -30.5695 2.2168
0.0681 26.3632 -0.9809 1.0879 -3.3860 1.9419 0.0000 0.0000 0.0000 -23.1421 1.5623 5.8551 1.6882 8.1840 23.2743 1.2398 14.9563 21.0769 0.4744 -4.4174 -12.2541 0.0000 0.0000 0.0000 24.4413 7.2889 5.0289 -3.8716 -11.9875 35.6878 -0.1261 -26.3504 19.3955 -0.2376 -3.1368 8.6598 2.0705 1.5226 -4.1270 -0.0413 1.9806 -4.5813 -1.1604 0.9302 -2.3279 -4.9841 -1.4988 -11.6343 5.8271 -1.8381 8.3070 2.4808 -0.7120 4.4865 -0.0000 -0.0000 0.0000 -69.8903 -8.3711 -0.6206 26.7300 -37.9205 -9.3327 -0.0000 -0.0000 7.6683 26.1001 20.4651 9.7197 -7.1250 0.0000 -0.0000 -2.4964 52.5290 -0.4628 -0.0000 -0.0000 0.0000 66.8127 29.1857 27.8335 -23.1317 34.2325 -7.2122 0.0000 0.0000 19.3163 -19.7853 -0.5893 0.2120 7.1250 -0.0000 -0.0000 5.3746 -30.5818 1.9000
